<svg width="200" height="80" viewBox="0 0 200 80" fill="none" xmlns="http://www.w3.org/2000/svg">
<path d="M42.1955 7C22.7713 7 6.97025 22.801 6.97025 42.2252C6.97025 43.1247 7.00799 44.0242 7.07718 44.9111C6.94509 44.9111 6.81928 44.9237 6.6809 44.93C4.59884 44.9803 2.9508 46.7101 3.00112 48.7985C3.05144 50.8805 4.78754 52.5286 6.86961 52.4783C7.41685 52.4657 7.94523 52.4342 8.47361 52.4028C11.1155 61.1588 17.1038 68.6881 25.388 73.1919C27.2185 74.1858 29.5081 73.5127 30.5082 71.6823C30.6278 71.4621 30.7221 71.2357 30.7913 71.0029C30.9045 70.6255 30.9611 70.2481 30.9611 69.8707L30.98 55.0069L41.4406 49.3772C41.9187 49.1193 42.4848 49.1193 42.9566 49.3772L53.4109 55.0069L53.392 69.877C53.392 71.4558 54.3607 72.8082 55.732 73.3744H55.7383C55.8641 73.431 55.9962 73.475 56.1283 73.5127C56.1912 73.5316 56.2478 73.5442 56.3107 73.5631C56.3736 73.5756 56.4365 73.5882 56.5057 73.6008C56.7322 73.6448 56.9586 73.67 57.1913 73.67C57.8015 73.67 58.4179 73.5253 58.9903 73.2108C70.3568 67.0338 77.4144 55.1642 77.4144 42.2441C77.4207 22.801 61.6197 7 42.1955 7ZM15.9967 51.1322C18.8588 50.3522 21.356 49.3269 23.4632 48.3016C23.4569 50.0377 23.4506 51.5599 23.4443 52.7047C23.4443 52.7173 23.4443 52.7299 23.4443 52.7425V54.9126L23.4317 62.5615C20.035 59.4227 17.4812 55.4976 16.003 51.1384L15.9967 51.1322ZM60.9529 62.5678L60.9655 52.755C60.9655 51.3649 60.2043 50.088 58.9778 49.4275L46.5357 42.7284C43.8183 41.2628 40.5789 41.2628 37.8615 42.7284L31.0115 46.4145C31.0115 45.6408 31.0177 44.8482 31.024 44.0368C38.132 39.4701 42.0193 33.897 41.7677 28.5314C41.6105 25.185 39.7611 22.3922 36.8173 21.0586C32.6595 19.1716 27.7972 20.7944 25.4949 24.8328C23.8469 27.7388 23.6079 30.8902 23.5764 33.01C23.545 34.96 23.5198 37.3 23.5009 39.7217C21.2616 41.0112 18.2738 42.6026 14.5563 43.6908C14.5311 43.2065 14.5059 42.7158 14.5059 42.2315C14.5059 26.9714 26.9228 14.5545 42.1829 14.5545C57.4429 14.5545 69.8598 26.9714 69.8598 42.2315C69.8598 50.0628 66.5512 57.3909 60.9403 62.5678H60.9529ZM31.1121 34.4253C31.1121 33.9724 31.1247 33.5384 31.131 33.1233C31.1624 31.0475 31.4518 29.6385 32.0619 28.5566C32.389 27.9779 32.8734 27.8395 33.2382 27.8395C33.4458 27.8395 33.6219 27.8835 33.6974 27.9213C33.8609 27.9967 34.1943 28.1477 34.2258 28.8774C34.2761 29.9719 33.5527 32.0036 31.1058 34.4191L31.1121 34.4253Z" fill="#EB4248"/>
<path d="M113.829 12.2206C111.06 9.40899 107.454 8 103.007 8C98.5599 8 94.9173 9.40899 92.1541 12.2206C89.3847 15.0385 88 18.7531 88 23.3708C88 27.9884 89.3847 31.703 92.1541 34.521C94.9235 37.3325 98.5412 38.7415 103.013 38.7415C107.486 38.7415 111.066 37.3325 113.829 34.521C116.623 31.7094 118.021 27.9884 118.021 23.3708C118.021 18.7531 116.623 15.0385 113.829 12.2206ZM108.558 30.4605C107.093 32.1257 105.246 32.9583 103.007 32.9583C100.768 32.9583 98.9092 32.1257 97.4185 30.4605C95.9527 28.7633 95.2229 26.4001 95.2229 23.3708C95.2229 20.3414 95.9527 17.9846 97.4185 16.3194C98.9092 14.6222 100.774 13.7768 103.007 13.7768C105.24 13.7768 107.093 14.6222 108.558 16.3194C110.049 17.9846 110.791 20.335 110.791 23.3708C110.791 26.4065 110.049 28.7697 108.558 30.4605Z" fill="white"/>
<path d="M131.674 16.1593H137.407C137.712 16.1593 137.968 16.3835 138.024 16.6909L139.87 27.681C139.989 28.3791 140.962 28.3919 141.099 27.6938L143.189 16.6781C143.245 16.3771 143.5 16.1593 143.8 16.1593H149.251C149.651 16.1593 149.95 16.5436 149.856 16.9406L145.191 37.7104C145.128 37.9986 144.873 38.2099 144.586 38.2099H137.937C137.637 38.2099 137.375 37.9858 137.325 37.6848L135.155 25.4138C135.03 24.7093 134.051 24.7093 133.926 25.4138L131.755 37.6848C131.699 37.9922 131.444 38.2099 131.144 38.2099H124.539C124.246 38.2099 123.996 38.005 123.934 37.7104L119.268 16.9406C119.181 16.5372 119.474 16.1593 119.873 16.1593H125.325C125.624 16.1593 125.88 16.3771 125.936 16.6781L128.019 27.6682C128.15 28.3662 129.129 28.3534 129.248 27.6553L131.063 16.6909C131.113 16.3835 131.375 16.1593 131.681 16.1593H131.674Z" fill="white"/>
<path d="M157.934 16.7997V19.0669C158.464 18.1383 159.319 17.3441 160.491 16.6909C161.689 16.0056 163.061 15.6661 164.602 15.6661C167.265 15.6661 169.124 16.4283 170.19 17.959C171.282 19.4896 171.825 21.8273 171.825 24.9655V37.5631C171.825 37.9153 171.544 38.2035 171.201 38.2035H165.862C165.519 38.2035 165.238 37.9153 165.238 37.5631V26.6498C165.238 25.8877 165.225 25.2857 165.2 24.8438C165.175 24.3762 165.094 23.8575 164.963 23.2875C164.857 22.7111 164.683 22.2884 164.446 22.0194C164.234 21.7184 163.915 21.4622 163.485 21.238C163.061 21.0203 162.543 20.9114 161.926 20.9114C160.541 20.9114 159.531 21.4046 158.894 22.3844C158.258 23.3387 157.934 24.8438 157.934 26.8932V37.5631C157.934 37.9153 157.653 38.2035 157.31 38.2035H151.971C151.628 38.2035 151.347 37.9153 151.347 37.5631V16.7997C151.347 16.4475 151.628 16.1593 151.971 16.1593H157.31C157.653 16.1593 157.934 16.4475 157.934 16.7997Z" fill="white"/>
<path d="M196.893 52.5304C194.872 50.0134 192.09 48.7581 188.547 48.7581C185.329 48.7581 182.597 49.8213 180.364 51.954C178.156 54.0867 177.051 56.8726 177.051 60.3182C177.051 63.7638 178.131 66.7803 180.282 68.8874C182.441 70.9625 185.285 72 188.828 72C191.142 72 193.269 71.3724 195.215 70.1171C196.93 69.0219 198.24 67.472 199.151 65.461C199.344 65.0319 199.045 64.5388 198.583 64.5388H193.793C193.587 64.5388 193.4 64.6541 193.275 64.827C192.383 66.1079 190.836 66.7547 188.628 66.7547C187.324 66.7547 186.196 66.3576 185.235 65.5635C184.474 64.9166 183.987 64.0392 183.775 62.9312C183.701 62.5342 184 62.1627 184.393 62.1627H199.001C199.338 62.1627 199.618 61.8873 199.625 61.5415C199.712 57.8909 198.801 54.8808 196.886 52.5304H196.893ZM184.511 58.0638C184.106 58.0638 183.8 57.6732 183.9 57.2697C184.143 56.2962 184.617 55.5341 185.316 54.9897C186.22 54.2788 187.3 53.9265 188.547 53.9265C189.795 53.9265 190.917 54.298 191.741 55.0345C192.427 55.6045 192.845 56.3667 192.994 57.3273C193.057 57.718 192.757 58.0702 192.371 58.0702H184.505L184.511 58.0638Z" fill="white"/>
<path d="M109.363 41.7516H114.939C115.282 41.7516 115.563 42.0398 115.563 42.3921V70.828C115.563 71.1802 115.282 71.4684 114.939 71.4684H109.363C109.02 71.4684 108.739 71.1802 108.739 70.828V59.9339C108.739 59.5817 108.459 59.2935 108.116 59.2935H97.4684C97.1253 59.2935 96.8446 59.5817 96.8446 59.9339V70.828C96.8446 71.1802 96.564 71.4684 96.2209 71.4684H90.6384C90.2954 71.4684 90.0147 71.1802 90.0147 70.828V42.3921C90.0147 42.0398 90.2954 41.7516 90.6384 41.7516H96.2209C96.564 41.7516 96.8446 42.0398 96.8446 42.3921V52.4663C96.8446 52.8186 97.1253 53.1068 97.4684 53.1068H108.116C108.459 53.1068 108.739 52.8186 108.739 52.4663V42.3921C108.739 42.0398 109.02 41.7516 109.363 41.7516Z" fill="white"/>
<path d="M136.733 51.7554C134.55 49.7636 131.849 48.7645 128.63 48.7645C125.412 48.7645 122.711 49.7636 120.528 51.7554C118.345 53.7216 117.253 56.5908 117.253 60.3631C117.253 64.1353 118.345 67.0173 120.528 69.0091C122.711 71.0009 125.412 72 128.63 72C131.849 72 134.55 71.0009 136.733 69.0091C138.916 67.0173 140.008 64.1289 140.008 60.3631C140.008 56.5972 138.916 53.7216 136.733 51.7554ZM132.024 65.2433C131.2 66.2552 130.065 66.7611 128.63 66.7611C127.196 66.7611 126.048 66.2552 125.2 65.2433C124.377 64.2057 123.965 62.579 123.965 60.3631C123.965 58.1471 124.389 56.5396 125.244 55.5277C126.092 54.5158 127.227 54.0098 128.637 54.0098C130.046 54.0098 131.182 54.5158 132.03 55.5277C132.878 56.5396 133.309 58.1535 133.309 60.3631C133.309 62.5726 132.884 64.1993 132.03 65.2433H132.024Z" fill="white"/>
<path d="M147.979 59.9916V70.828C147.979 71.1802 147.698 71.4684 147.355 71.4684H142.016C141.673 71.4684 141.392 71.1802 141.392 70.828V50.0582C141.392 49.706 141.673 49.4178 142.016 49.4178H147.355C147.698 49.4178 147.979 49.706 147.979 50.0582V52.3254C148.509 51.3968 149.351 50.6026 150.493 49.9494C151.665 49.2641 152.994 48.9247 154.485 48.9247C157.703 48.9247 159.836 50.1671 160.872 52.6521C162.518 50.1671 164.97 48.9247 168.219 48.9247C170.883 48.9247 172.741 49.6868 173.808 51.2175C174.9 52.7481 175.442 55.0858 175.442 58.224V70.8216C175.442 71.1738 175.162 71.462 174.818 71.462H169.479C169.136 71.462 168.856 71.1738 168.856 70.8216V59.9019C168.856 59.1398 168.843 58.525 168.818 58.0574C168.793 57.5899 168.712 57.0904 168.581 56.5396C168.475 55.9952 168.3 55.5725 168.063 55.2715C167.851 54.9449 167.533 54.6823 167.103 54.4901C166.679 54.2724 166.161 54.1635 165.543 54.1635C162.986 54.1635 161.714 56.1041 161.714 59.9852V70.8216C161.714 71.1738 161.433 71.462 161.09 71.462H155.751C155.408 71.462 155.127 71.1738 155.127 70.8216V59.9019C155.127 59.1398 155.115 58.525 155.09 58.0574C155.065 57.5899 154.984 57.0904 154.853 56.5396C154.747 55.9952 154.572 55.5725 154.335 55.2715C154.123 54.9449 153.805 54.6823 153.374 54.4901C152.95 54.2724 152.426 54.1635 151.815 54.1635C149.258 54.1635 147.985 56.1041 147.985 59.9852L147.979 59.9916Z" fill="white"/>
</svg>
